<svg xmlns="http://www.w3.org/2000/svg" width="1000" height="1000" viewBox="0 0 1000 1000">
  <defs>
    <style>
      .cls-1 {
        fill: #0575a3;
      }

      .cls-1, .cls-2 {
        fill-rule: evenodd;
      }
    </style>
  </defs>
  <path id="logo" class="cls-1" d="M431,275l44-27v58l-44,27V275Zm0,83,44-27v58H576V280l45-27V500l-45,28V441H476V560l-45,27V358Z"/>
  <path id="top_text" data-name="top text" class="cls-1" d="M108,636h7v56h-7V636Zm28,56h7V651l31,41h5V636h-7v41l-32-42h-4v57Zm60,0h7V670h19l2-6H203V642h29l2-6H196v56Zm38,0h8l5-13h23l5,13h8l-24-58Zm60,0h7V651l31,41h5V636h-7v41l-32-41h-4v56Zm56-56v6h18v50h7V642h20v-6H350Zm87,0h7v25h32V636h7v56h-7V667H444v25h-7V636ZM248,673h20l-9-23Zm254-37h41v6H509v19h30v6H509v20h34v5H502V636Zm59,0h33s12,1.7,12,17-12,16-12,16l15,23h-8l-15-22H568v22h-7V636Zm7,6v23h23s8-.224,8-11-6-12-6-12H568Zm98,7,5-5a32.808,32.808,0,0,0-23-9c-14.7,0-28,8.97-28,29,0,18.912,14.619,29,26,29,18.205,0,25-10,25-10l-4-4s-0.93,8-20,8c-12.972,0-21-10.039-21-23s6.143-23,22-23S666,649,666,649Zm19-13h6v39s-0.52,12,16,12,17-12,17-12V636h6v43s-2.973,14-23,14-22-14-22-14V636Zm62,0h6v51h30v5H747V636Zm51,0h39v6H804v19h29v6H804v20h34v5H798V636Zm90,10,3-5s-5.436-5-18-5-19,5.3-19,15,7.725,13.913,13,15,20,2.839,20,12-11.539,9-17,9-14-6-14-6l-4,5a28.366,28.366,0,0,0,19,7c11.981,0,22-3.984,22-15s-10.01-14.809-18-16c-8.284-1.235-15-5.233-15-12s6.828-9,13-9S888,646,888,646Z"/>
  <path id="bottom_text" data-name="bottom text" class="cls-2" d="M245,735v17s0.253,7,11,7,10-7,10-7V735h-4v17s-0.609,4-6,4-7-4-7-4V735h-4Zm-33,0v24h17s4-2.556,4-6-4-6-4-6a7.059,7.059,0,0,0,3-6c0-4.206-4-6-4-6H212Zm4,3v7h11a3.078,3.078,0,0,0,2-3,5.749,5.749,0,0,0-2-4H216Zm0,11h11a3.325,3.325,0,0,1,2,3,6.243,6.243,0,0,1-2,4H216v-7Zm78-9,3-3a15.684,15.684,0,0,0-9-3c-5.252,0-9,3.366-9,7s3.333,6.475,5,7,9,2,9,2,2.6,2.365,1,4-2.319,2-6,2-8-3-8-3l-2,3s3.353,3,10,3,10-3.424,10-6-2.2-5.858-8-7-7-2.722-7-5,1.8-3,5-3A11.691,11.691,0,0,1,294,740Zm16-5v24h3V735h-3Zm18,0v24h3V740l15,19h3V735h-3v18l-15-18h-3Zm36,24h18v-3H367v-8h13v-3H367v-7h15v-3H364v24Zm44.96-19,3-3a15.68,15.68,0,0,0-9-3c-5.252,0-9,3.366-9,7s3.334,6.475,5,7,9,2,9,2,2.6,2.365,1,4-2.319,2-6,2-8-3-8-3l-2,3s3.353,3,10,3,10-3.424,10-6-2.2-5.858-8-7-7-2.722-7-5,1.8-3,5-3A11.691,11.691,0,0,1,408.96,740Zm29.347,0,3-3a15.684,15.684,0,0,0-9-3c-5.252,0-9,3.366-9,7s3.334,6.475,5,7,9,2,9,2,2.6,2.365,1,4-2.319,2-6,2-8-3-8-3l-2,3s3.353,3,10,3,10-3.424,10-6-2.2-5.858-8-7-7-2.722-7-5,1.8-3,5-3A11.691,11.691,0,0,1,438.307,740Zm155.119,0,3-3a15.68,15.68,0,0,0-9-3c-5.252,0-9,3.366-9,7s3.334,6.475,5,7,9,2,9,2,2.6,2.365,1,4-2.319,2-6,2-8-3-8-3l-2,3s3.353,3,10,3,10-3.424,10-6-2.2-5.858-8-7-7-2.722-7-5,1.8-3,5-3A11.691,11.691,0,0,1,593.426,740Zm-50.418-5v24h3V740l15,19h3V735h-3v18l-15-18h-3Zm192,0v24h3V740l15,19h3V735h-3v18l-15-18h-3ZM609,735v17s0.253,7,11,7,10-7,10-7V735h-4v17s-0.609,4-6,4-7-4-7-4V735h-4Zm-118,6,3-3s-3.16-4-10-4c-8.384,0-13,5.872-13,13s5.49,12,13,12,10-4,10-4l-2-2s-3.926,3-8,3-10-3.44-10-9,3.821-10,10-10c5.738,0,7,4,7,4m14,6s-0.065-12,12-12c10.906,0,13,8.568,13,12,0,3.653-1.295,12-13,12-12.146,0-12-12-12-12m3,0s0.135-9,9-9c8.644,0,10,8.043,10,9s-0.612,9-10,9S508,747,508,747Zm136-12h3v21h13v3H644V735Zm25,0v3h8v21h4V738h10v-3H669Zm29,24h4l3-7h12l3,7h4l-11-24h-4Zm13-20-5,11h10Zm91-4h3l8,12,8-12h3l-9,14v10h-4V749Zm-13,6,3-3s-3.16-4-10-4c-8.384,0-13,5.872-13,13s5.49,12,13,12,10-4,10-4l-2-2s-3.926,3-8,3-10-3.44-10-9,3.821-10,10-10c5.738,0,7,4,7,4"/>
</svg>
